<svg width="35" height="35" viewBox="0 0 35 35" fill="none" xmlns="http://www.w3.org/2000/svg">
<circle cx="17.2727" cy="17.2727" r="16.1932" stroke="#212121" stroke-width="2.15909"/>
<mask id="mask0_7_23277" style="mask-type:alpha" maskUnits="userSpaceOnUse" x="5" y="6" width="24" height="24">
<rect x="6.83711" y="7.98836" width="20.8712" height="20.8712" fill="#D9D9D9" stroke="#212121" stroke-width="2.15909"/>
</mask>
<g mask="url(#mask0_7_23277)">
<mask id="path-3-inside-1_7_23277" fill="white">
<path d="M14.3937 24.1817L8.63611 18.4241L14.3937 12.6665L15.7371 14.0099L12.2826 17.4645H23.9896V13.6261H25.9088V19.3837H12.2826L15.7371 22.8382L14.3937 24.1817Z"/>
</mask>
<path d="M14.3937 24.1817L8.63611 18.4241L14.3937 12.6665L15.7371 14.0099L12.2826 17.4645H23.9896V13.6261H25.9088V19.3837H12.2826L15.7371 22.8382L14.3937 24.1817Z" fill="#FEFCFA"/>
<path d="M14.3937 24.1817L12.867 25.7084L14.3937 27.2351L15.9204 25.7084L14.3937 24.1817ZM8.63611 18.4241L7.1094 16.8974L5.58269 18.4241L7.1094 19.9508L8.63611 18.4241ZM14.3937 12.6665L15.9204 11.1398L14.3937 9.61309L12.867 11.1398L14.3937 12.6665ZM15.7371 14.0099L17.2638 15.5366L18.7905 14.0099L17.2638 12.4832L15.7371 14.0099ZM12.2826 17.4645L10.7559 15.9378L7.07007 19.6236H12.2826V17.4645ZM23.9896 17.4645V19.6236H26.1487V17.4645H23.9896ZM23.9896 13.6261V11.467H21.8306V13.6261H23.9896ZM25.9088 13.6261H28.0679V11.467H25.9088V13.6261ZM25.9088 19.3837V21.5428H28.0679V19.3837H25.9088ZM12.2826 19.3837V17.2246H7.07007L10.7559 20.9104L12.2826 19.3837ZM15.7371 22.8382L17.2638 24.3649L18.7905 22.8382L17.2638 21.3115L15.7371 22.8382ZM15.9204 22.6549L10.1628 16.8974L7.1094 19.9508L12.867 25.7084L15.9204 22.6549ZM10.1628 19.9508L15.9204 14.1932L12.867 11.1398L7.1094 16.8974L10.1628 19.9508ZM12.867 14.1932L14.2104 15.5366L17.2638 12.4832L15.9204 11.1398L12.867 14.1932ZM14.2104 12.4832L10.7559 15.9378L13.8093 18.9912L17.2638 15.5366L14.2104 12.4832ZM12.2826 19.6236H23.9896V15.3054H12.2826V19.6236ZM26.1487 17.4645V13.6261H21.8306V17.4645H26.1487ZM23.9896 15.7852H25.9088V11.467H23.9896V15.7852ZM23.7497 13.6261V19.3837H28.0679V13.6261H23.7497ZM25.9088 17.2246H12.2826V21.5428H25.9088V17.2246ZM10.7559 20.9104L14.2104 24.3649L17.2638 21.3115L13.8093 17.857L10.7559 20.9104ZM14.2104 21.3115L12.867 22.6549L15.9204 25.7084L17.2638 24.3649L14.2104 21.3115Z" fill="#212121" mask="url(#path-3-inside-1_7_23277)"/>
</g>
</svg>
