<svg width="17" height="15" viewBox="0 0 17 15" fill="none" xmlns="http://www.w3.org/2000/svg">
<path d="M6.89034 9.63325V10.7658C6.89034 11.4667 6.61192 12.1389 6.11632 12.6345C5.62072 13.1301 4.94854 13.4085 4.24766 13.4085C3.54678 13.4085 2.8746 13.1301 2.379 12.6345C1.8834 12.1389 1.60498 11.4667 1.60498 10.7658V5.48047M10.6656 9.63325V10.7658C10.6656 11.4667 10.944 12.1389 11.4396 12.6345C11.9352 13.1301 12.6074 13.4085 13.3083 13.4085C14.0092 13.4085 14.6813 13.1301 15.1769 12.6345C15.6725 12.1389 15.951 11.4667 15.951 10.7658V5.48047" stroke="#414141" stroke-width="1.5101" stroke-linecap="round" stroke-linejoin="round"/>
<path d="M11.7982 1.32812H5.75776C3.46424 1.32812 1.60498 3.18739 1.60498 5.48091C1.60498 7.77443 3.46424 9.63369 5.75776 9.63369H11.7982C14.0917 9.63369 15.951 7.77443 15.951 5.48091C15.951 3.18739 14.0917 1.32812 11.7982 1.32812Z" stroke="#414141" stroke-width="1.5101"/>
<path d="M7.64521 5.48056H4.625M6.1351 3.97046V6.99066" stroke="#414141" stroke-width="1.5101" stroke-linecap="round" stroke-linejoin="round"/>
<path d="M13.3075 4.72551C13.3075 4.30851 12.9694 3.97046 12.5524 3.97046C12.1354 3.97046 11.7974 4.30851 11.7974 4.72551C11.7974 5.14251 12.1354 5.48056 12.5524 5.48056C12.9694 5.48056 13.3075 5.14251 13.3075 4.72551Z" fill="#414141"/>
<path d="M11.7975 6.61321C11.7975 6.1962 11.4594 5.85815 11.0424 5.85815C10.6254 5.85815 10.2874 6.1962 10.2874 6.61321C10.2874 7.03021 10.6254 7.36826 11.0424 7.36826C11.4594 7.36826 11.7975 7.03021 11.7975 6.61321Z" fill="#414141"/>
</svg>
