<svg width="20" height="22" viewBox="0 0 20 22" fill="none" xmlns="http://www.w3.org/2000/svg">
<path d="M10.6476 20.5136L10.6356 20.5156L10.5646 20.5506L10.5446 20.5546L10.5306 20.5506L10.4596 20.5146C10.449 20.5119 10.441 20.5139 10.4356 20.5206L10.4316 20.5306L10.4146 20.9586L10.4196 20.9786L10.4296 20.9916L10.5336 21.0656L10.5486 21.0696L10.5606 21.0656L10.6646 20.9916L10.6766 20.9756L10.6806 20.9586L10.6636 20.5316C10.661 20.5209 10.6556 20.5149 10.6476 20.5136ZM10.9116 20.4006L10.8976 20.4026L10.7136 20.4956L10.7036 20.5056L10.7006 20.5166L10.7186 20.9466L10.7236 20.9586L10.7316 20.9666L10.9326 21.0586C10.9453 21.0619 10.955 21.0592 10.9616 21.0506L10.9656 21.0366L10.9316 20.4226C10.9283 20.4099 10.9216 20.4026 10.9116 20.4006ZM10.1966 20.4026C10.1922 20.3999 10.187 20.399 10.1819 20.4001C10.1769 20.4013 10.1725 20.4043 10.1696 20.4086L10.1636 20.4226L10.1296 21.0366C10.1303 21.0486 10.136 21.0566 10.1466 21.0606L10.1616 21.0586L10.3626 20.9656L10.3726 20.9576L10.3756 20.9466L10.3936 20.5166L10.3906 20.5046L10.3806 20.4946L10.1966 20.4026Z" fill="#414141"/>
<path d="M7.55152 3.04855C8.97152 1.14455 11.1065 0.58855 13.0705 1.12355C15.1905 1.70055 17.0545 3.52155 17.6735 6.05755C17.7055 6.18755 17.7332 6.31755 17.7565 6.44755C16.8629 6.12915 15.891 6.10462 14.9825 6.37755C13.6955 5.42555 12.1015 5.26555 10.6845 5.78755C8.90952 6.44255 7.52352 8.10355 7.20252 10.1936C6.79252 12.8696 8.42252 15.2736 10.7275 17.3176L11.1155 17.6536C10.8025 17.6756 10.4845 17.6266 10.1805 17.5616C10.0243 17.5279 9.86894 17.4906 9.71452 17.4496L9.17752 17.2996C4.40352 15.9566 1.20752 13.8556 0.290519 10.7156C-0.441481 8.20955 0.262519 5.70055 1.81052 4.14055C3.24452 2.69555 5.37052 2.10955 7.55152 3.04855ZM9.17952 10.4966C9.60752 7.70455 12.8365 6.32855 14.4945 8.72455C14.5104 8.74682 14.5344 8.76193 14.5614 8.76661C14.5883 8.77129 14.6161 8.76516 14.6385 8.74955C17.0155 7.06555 19.5785 9.46255 19.0255 12.2326C18.7055 13.8392 17.2155 15.1726 14.5555 16.2325L14.1205 16.4025L13.8575 16.5105C13.6305 16.5995 13.3905 16.6706 13.1735 16.6326C12.9575 16.5946 12.7565 16.4445 12.5735 16.2845L12.2635 16.0046C9.95019 14.0139 8.92219 12.1779 9.17952 10.4966Z" fill="#414141"/>
</svg>
