<svg width="28" height="26" viewBox="0 0 28 26" fill="none" xmlns="http://www.w3.org/2000/svg">
<path d="M16.041 0.731321C9.10186 0.540461 3.41697 6.11628 3.41697 13.0009H0.976701C0.363225 13.0009 0.0633028 13.737 0.499553 14.1596L4.30311 17.9768C4.57576 18.2495 4.99838 18.2495 5.27104 17.9768L9.07459 14.1596C9.1688 14.0635 9.23245 13.9417 9.25752 13.8095C9.28259 13.6773 9.26797 13.5406 9.21548 13.4166C9.163 13.2927 9.075 13.1871 8.96259 13.1131C8.85018 13.0391 8.71839 13.0001 8.58381 13.0009H6.14354C6.14354 7.68406 10.4788 3.38972 15.8228 3.45788C20.8942 3.52605 25.1613 7.79312 25.2295 12.8645C25.2976 18.195 21.0033 22.5438 15.6865 22.5438C13.4916 22.5438 11.4603 21.794 9.85166 20.5262C9.59054 20.3205 9.26293 20.2179 8.93113 20.238C8.59933 20.2581 8.2865 20.3995 8.05213 20.6352C7.47955 21.2078 7.52045 22.1757 8.16119 22.6665C10.3032 24.3602 12.9559 25.278 15.6865 25.2704C22.5711 25.2704 28.1469 19.5855 27.956 12.6464C27.7788 6.25261 22.4347 0.908547 16.041 0.731321ZM15.3457 7.54773C14.7867 7.54773 14.3232 8.01124 14.3232 8.57019V13.5871C14.3232 14.0642 14.5822 14.5141 14.9912 14.7595L19.2447 17.2816C19.7355 17.5678 20.3626 17.4043 20.6488 16.9271C20.9351 16.4363 20.7715 15.8092 20.2944 15.5229L16.3681 13.1917V8.55655C16.3681 8.01124 15.9046 7.54773 15.3457 7.54773Z" fill="#212121"/>
</svg>
