<svg width="22" height="19" viewBox="0 0 22 19" fill="none" xmlns="http://www.w3.org/2000/svg">
<path d="M7.79621 3.90047V1.16662C7.79621 0.985352 7.86509 0.81151 7.98769 0.683336C8.11029 0.555162 8.27657 0.483154 8.44996 0.483154C8.62334 0.483154 8.78962 0.555162 8.91222 0.683336C9.03483 0.81151 9.1037 0.985352 9.1037 1.16662V3.90047C9.1037 4.08174 9.03483 4.25558 8.91222 4.38375C8.78962 4.51193 8.62334 4.58394 8.44996 4.58394C8.27657 4.58394 8.11029 4.51193 7.98769 4.38375C7.86509 4.25558 7.79621 4.08174 7.79621 3.90047ZM11.0649 4.58394C11.2383 4.58394 11.4046 4.51193 11.5272 4.38375C11.6498 4.25558 11.7187 4.08174 11.7187 3.90047V1.16662C11.7187 0.985352 11.6498 0.81151 11.5272 0.683336C11.4046 0.555162 11.2383 0.483154 11.0649 0.483154C10.8916 0.483154 10.7253 0.555162 10.6027 0.683336C10.4801 0.81151 10.4112 0.985352 10.4112 1.16662V3.90047C10.4112 4.08174 10.4801 4.25558 10.6027 4.38375C10.7253 4.51193 10.8916 4.58394 11.0649 4.58394ZM13.6799 4.58394C13.8533 4.58394 14.0196 4.51193 14.1422 4.38375C14.2648 4.25558 14.3337 4.08174 14.3337 3.90047V1.16662C14.3337 0.985352 14.2648 0.81151 14.1422 0.683336C14.0196 0.555162 13.8533 0.483154 13.6799 0.483154C13.5066 0.483154 13.3403 0.555162 13.2177 0.683336C13.0951 0.81151 13.0262 0.985352 13.0262 1.16662V3.90047C13.0262 4.08174 13.0951 4.25558 13.2177 4.38375C13.3403 4.51193 13.5066 4.58394 13.6799 4.58394ZM21.3942 7.59118C21.2901 7.44616 21.1353 7.35029 20.9636 7.32466C20.792 7.29903 20.6176 7.34572 20.4789 7.45448L18.9099 8.68472V6.63433C18.9099 6.45306 18.841 6.27922 18.7184 6.15105C18.5958 6.02287 18.4296 5.95086 18.2562 5.95086H3.87372C3.70034 5.95086 3.53405 6.02287 3.41145 6.15105C3.28885 6.27922 3.21997 6.45306 3.21997 6.63433V8.68472L1.65098 7.45448C1.51227 7.34572 1.33792 7.29903 1.16628 7.32466C0.994635 7.35029 0.839763 7.44616 0.735733 7.59118C0.631702 7.73619 0.587033 7.91847 0.611554 8.09791C0.636074 8.27735 0.727775 8.43927 0.866482 8.54803L3.21997 10.3934V15.5194C3.21997 16.2444 3.49548 16.9398 3.98589 17.4525C4.47629 17.9652 5.14143 18.2532 5.83496 18.2532H16.2949C16.9885 18.2532 17.6536 17.9652 18.144 17.4525C18.6344 16.9398 18.9099 16.2444 18.9099 15.5194V10.3934L21.2634 8.54803C21.3321 8.49417 21.39 8.42671 21.4337 8.34947C21.4774 8.27224 21.5062 8.18676 21.5183 8.09791C21.5305 8.00906 21.5258 7.91858 21.5045 7.83163C21.4832 7.74469 21.4457 7.66298 21.3942 7.59118Z" fill="#414141"/>
</svg>
