<svg width="19" height="25" viewBox="0 0 19 25" fill="none" xmlns="http://www.w3.org/2000/svg">
<path d="M9.5 0C10.5798 0 11.6154 0.415882 12.3789 1.15616C13.1425 1.89643 13.5714 2.90046 13.5714 3.94737V11.8421C13.5714 12.889 13.1425 13.893 12.3789 14.6333C11.6154 15.3736 10.5798 15.7895 9.5 15.7895C8.42019 15.7895 7.38461 15.3736 6.62106 14.6333C5.85752 13.893 5.42857 12.889 5.42857 11.8421V3.94737C5.42857 2.90046 5.85752 1.89643 6.62106 1.15616C7.38461 0.415882 8.42019 0 9.5 0ZM19 11.8421C19 16.4868 15.4579 20.3158 10.8571 20.9605V25H8.14286V20.9605C3.54214 20.3158 0 16.4868 0 11.8421H2.71429C2.71429 13.587 3.42921 15.2603 4.70178 16.4941C5.97434 17.7279 7.70032 18.4211 9.5 18.4211C11.2997 18.4211 13.0257 17.7279 14.2982 16.4941C15.5708 15.2603 16.2857 13.587 16.2857 11.8421H19Z" fill="#A3A3A3"/>
</svg>
