<svg width="14" height="8" viewBox="0 0 14 8" fill="none" xmlns="http://www.w3.org/2000/svg">
<path fill-rule="evenodd" clip-rule="evenodd" d="M0.94855 0.391971C1.18932 0.15127 1.51584 0.0160521 1.85629 0.0160521C2.19674 0.0160521 2.52326 0.15127 2.76403 0.391971L6.99203 4.61996L11.22 0.391971C11.3385 0.269342 11.4801 0.171528 11.6368 0.104239C11.7934 0.0369489 11.9619 0.0015299 12.1324 4.84758e-05C12.3029 -0.00143295 12.4719 0.0310537 12.6297 0.095611C12.7875 0.160168 12.9309 0.255504 13.0514 0.376056C13.172 0.496608 13.2673 0.639962 13.3319 0.797752C13.3964 0.955543 13.4289 1.12461 13.4274 1.29509C13.4259 1.46557 13.3905 1.63405 13.3232 1.79069C13.2559 1.94734 13.1581 2.08901 13.0355 2.20745L7.89977 7.34319C7.65899 7.58389 7.33248 7.71911 6.99203 7.71911C6.65157 7.71911 6.32506 7.58389 6.08429 7.34319L0.94855 2.20745C0.70785 1.96668 0.572632 1.64016 0.572632 1.29971C0.572632 0.959258 0.70785 0.632744 0.94855 0.391971Z" fill="#4A4A4A"/>
</svg>
