<svg width="21" height="22" viewBox="0 0 21 22" fill="none" xmlns="http://www.w3.org/2000/svg">
<path d="M8.22131 5.62278e-07C6.93457 0.000714617 5.66594 0.314832 4.51737 0.917105C3.36881 1.51938 2.37236 2.39301 1.6081 3.46778C0.843845 4.54255 0.333101 5.78848 0.116921 7.10544C-0.0992588 8.42239 -0.0148453 9.77364 0.363377 11.0506C0.7416 12.3275 1.40308 13.4945 2.29466 14.4578C3.18623 15.421 4.28304 16.1537 5.49691 16.5969C6.71078 17.0401 8.00787 17.1814 9.28391 17.0095C10.56 16.8377 11.7794 16.3574 12.8442 15.6073L17.9276 20.8809C18.0688 21.0382 18.2391 21.1644 18.4283 21.252C18.6175 21.3395 18.8217 21.3865 19.0288 21.3903C19.2359 21.3941 19.4416 21.3546 19.6336 21.274C19.8257 21.1935 20.0001 21.0736 20.1466 20.9216C20.2931 20.7695 20.4085 20.5884 20.4861 20.389C20.5637 20.1896 20.6018 19.976 20.5981 19.761C20.5944 19.546 20.5491 19.334 20.4648 19.1376C20.3805 18.9411 20.259 18.7644 20.1074 18.6178L15.0281 13.3399C15.8684 12.0558 16.3557 10.5582 16.4376 9.00813C16.5196 7.45803 16.193 5.91408 15.493 4.54227C14.793 3.17046 13.7461 2.02268 12.4649 1.22236C11.1837 0.422037 9.71655 -0.000562677 8.22131 5.62278e-07ZM3.08024 8.54026C3.08024 7.12462 3.62189 5.76697 4.58603 4.76596C5.55016 3.76495 6.85781 3.2026 8.22131 3.2026C9.5848 3.2026 10.8925 3.76495 11.8566 4.76596C12.8207 5.76697 13.3624 7.12462 13.3624 8.54026C13.3624 9.95589 12.8207 11.3135 11.8566 12.3146C10.8925 13.3156 9.5848 13.8779 8.22131 13.8779C6.85781 13.8779 5.55016 13.3156 4.58603 12.3146C3.62189 11.3135 3.08024 9.95589 3.08024 8.54026Z" fill="#ffffff"/>
</svg>
