<svg width="39" height="39" viewBox="0 0 39 39" fill="none" xmlns="http://www.w3.org/2000/svg">
<mask id="mask0_7_23356" style="mask-type:alpha" maskUnits="userSpaceOnUse" x="0" y="0" width="39" height="39">
<rect width="38.1951" height="38.1951" fill="#D9D9D9"/>
</mask>
<g mask="url(#mask0_7_23356)">
<path d="M12.1538 32.4658C11.4185 32.4658 10.7891 32.204 10.2655 31.6804C9.74192 31.1568 9.48012 30.5274 9.48012 29.7921C9.48012 29.0569 9.74192 28.4275 10.2655 27.9039C10.7891 27.3803 11.4185 27.1185 12.1538 27.1185C12.889 27.1185 13.5185 27.3803 14.042 27.9039C14.5656 28.4275 14.8274 29.0569 14.8274 29.7921C14.8274 30.5274 14.5656 31.1568 14.042 31.6804C13.5185 32.204 12.889 32.4658 12.1538 32.4658ZM25.522 32.4658C24.7868 32.4658 24.1574 32.204 23.6338 31.6804C23.1102 31.1568 22.8484 30.5274 22.8484 29.7921C22.8484 29.0569 23.1102 28.4275 23.6338 27.9039C24.1574 27.3803 24.7868 27.1185 25.522 27.1185C26.2573 27.1185 26.8867 27.3803 27.4103 27.9039C27.9339 28.4275 28.1957 29.0569 28.1957 29.7921C28.1957 30.5274 27.9339 31.1568 27.4103 31.6804C26.8867 32.204 26.2573 32.4658 25.522 32.4658ZM11.0175 11.0766L14.2259 17.7607H23.5836L27.2599 11.0766H11.0175ZM9.74749 8.4029H29.4657C29.9781 8.4029 30.368 8.63128 30.6354 9.08803C30.9028 9.54478 30.9139 10.0071 30.6688 10.475L25.9231 19.0307C25.678 19.4763 25.3494 19.8216 24.9372 20.0667C24.525 20.3118 24.0738 20.4343 23.5836 20.4343H13.6243L12.1538 23.108H28.1957V25.7817H12.1538C11.1512 25.7817 10.3936 25.3416 9.88117 24.4615C9.36872 23.5815 9.34644 22.707 9.81433 21.838L11.619 18.5628L6.80647 8.4029H4.13281V5.72925H8.4775L9.74749 8.4029Z" fill="#212121"/>
</g>
</svg>
