<svg width="25" height="23" viewBox="0 0 25 23" fill="none" xmlns="http://www.w3.org/2000/svg">
<path d="M15.9163 0.401437C15.778 0.293212 15.6122 0.226228 15.4379 0.208111C15.2636 0.189994 15.0878 0.221472 14.9304 0.298962C14.773 0.376452 14.6404 0.496839 14.5477 0.646415C14.4551 0.795992 14.406 0.968746 14.4061 1.14501V4.89675L14.1535 4.90993C13.1646 4.97771 12.1911 5.19146 11.2641 5.54432C9.7045 6.13814 8.34483 7.16574 7.34368 8.50731C6.17784 10.0622 5.32077 12.2195 5.05317 15.1787C5.03545 15.3716 5.07731 15.5653 5.17303 15.7333C5.26875 15.9014 5.41368 16.0356 5.58804 16.1178C5.76241 16.1999 5.95771 16.2259 6.14733 16.1923C6.33694 16.1587 6.51162 16.067 6.64754 15.9298C8.87069 13.6897 11.0807 12.5866 12.7144 12.0388C13.3881 11.8129 13.9645 11.6811 14.4061 11.6058V15.2635C14.406 15.4449 14.4581 15.6225 14.5561 15.7748C14.654 15.9272 14.7936 16.0478 14.9581 16.1222C15.1226 16.1966 15.305 16.2215 15.4833 16.1941C15.6616 16.1667 15.8282 16.088 15.963 15.9675L24.384 8.43766C24.4869 8.34592 24.5684 8.23252 24.6227 8.10551C24.6771 7.9785 24.7029 7.841 24.6985 7.7028C24.694 7.5646 24.6593 7.42909 24.5969 7.3059C24.5345 7.18271 24.4458 7.07487 24.3373 6.99004L15.9163 0.401437ZM15.2351 6.78674H15.2407C15.3713 6.80101 15.5035 6.78745 15.6285 6.74695C15.7536 6.70644 15.8688 6.63989 15.9666 6.55163C16.0644 6.46337 16.1426 6.35538 16.1962 6.23469C16.2497 6.11401 16.2774 5.98332 16.2774 5.85116V3.06888L22.3012 7.78256L16.2774 13.1664V10.5573C16.2774 10.3077 16.1788 10.0683 16.0034 9.89176C15.8279 9.71524 15.5899 9.61607 15.3418 9.61607H15.2575L15.0704 9.62737C14.8482 9.64325 14.6266 9.66711 14.4061 9.6989C13.8447 9.77985 13.0587 9.93797 12.1231 10.2523C10.4057 10.8389 8.79512 11.7036 7.35491 12.8125C7.71795 11.4647 8.24566 10.4331 8.83888 9.64055C9.62867 8.58106 10.7024 7.77003 11.9341 7.30253C12.9149 6.93123 13.9572 6.75169 15.0049 6.77356C15.0898 6.77607 15.1521 6.77921 15.1921 6.78297L15.2351 6.78674ZM5.04943 2.08624C3.80866 2.08624 2.6187 2.58206 1.74135 3.46464C0.863988 4.34721 0.371094 5.54424 0.371094 6.79239V18.0871C0.371094 19.3353 0.863988 20.5323 1.74135 21.4149C2.6187 22.2975 3.80866 22.7933 5.04943 22.7933H16.2774C17.5182 22.7933 18.7081 22.2975 19.5855 21.4149C20.4629 20.5323 20.9558 19.3353 20.9558 18.0871V16.2047C20.9558 15.9551 20.8572 15.7156 20.6817 15.5391C20.5062 15.3626 20.2682 15.2635 20.0201 15.2635C19.7719 15.2635 19.5339 15.3626 19.3585 15.5391C19.183 15.7156 19.0844 15.9551 19.0844 16.2047V18.0871C19.0844 18.836 18.7887 19.5542 18.2623 20.0838C17.7359 20.6133 17.0219 20.9108 16.2774 20.9108H5.04943C4.30496 20.9108 3.59099 20.6133 3.06458 20.0838C2.53816 19.5542 2.24243 18.836 2.24243 18.0871V6.79239C2.24243 6.0435 2.53816 5.32528 3.06458 4.79574C3.59099 4.26619 4.30496 3.9687 5.04943 3.9687H8.79209C9.04025 3.9687 9.27824 3.86953 9.45371 3.69302C9.62918 3.5165 9.72776 3.2771 9.72776 3.02747C9.72776 2.77784 9.62918 2.53843 9.45371 2.36192C9.27824 2.1854 9.04025 2.08624 8.79209 2.08624H5.04943Z" fill="#414141"/>
</svg>
