<svg width="20" height="15" viewBox="0 0 20 15" fill="none" xmlns="http://www.w3.org/2000/svg">
<path d="M4.44 14.5442C3.2093 14.5442 2.16179 14.0979 1.29747 13.2054C0.432489 12.3142 0 11.2286 0 9.94859C0 8.77382 0.386445 7.73128 1.15933 6.82098C1.93222 5.91069 2.89291 5.42171 4.04139 5.35405C4.26306 3.86081 4.92413 2.62726 6.02459 1.65341C7.12506 0.679554 8.40575 0.192627 9.86668 0.192627C11.5124 0.192627 12.9105 0.790266 14.061 1.98554C15.2115 3.18082 15.7867 4.6334 15.7867 6.34328V7.36839H16.3945C17.339 7.39983 18.1317 7.76033 18.7723 8.44988C19.413 9.13944 19.7334 9.9749 19.7334 10.9563C19.7334 11.9616 19.3999 12.811 18.7329 13.5047C18.0646 14.1977 17.247 14.5442 16.28 14.5442H4.44Z" fill="#414141"/>
</svg>
